<?xml version="1.0" encoding="UTF-8" standalone="no" ?>
<!DOCTYPE svg PUBLIC "-//W3C//DTD SVG 1.1//EN" "http://www.w3.org/Graphics/SVG/1.1/DTD/svg11.dtd">
<svg xmlns="http://www.w3.org/2000/svg" xmlns:xlink="http://www.w3.org/1999/xlink" version="1.1" width="1080" height="1080" viewBox="0 0 1080 1080" xml:space="preserve">
<desc>Created with Fabric.js 5.2.4</desc>
<defs>
</defs>
<rect x="0" y="0" width="100%" height="100%" fill="transparent"></rect>
<g transform="matrix(1 0 0 1 540 540)" id="ad25f3e6-5b28-4362-aad6-ea6822e56774"  >
<rect style="stroke: none; stroke-width: 1; stroke-dasharray: none; stroke-linecap: butt; stroke-dashoffset: 0; stroke-linejoin: miter; stroke-miterlimit: 4; fill: rgb(255,255,255); fill-rule: nonzero; opacity: 1; visibility: hidden;" vector-effect="non-scaling-stroke"  x="-540" y="-540" rx="0" ry="0" width="1080" height="1080" />
</g>
<g transform="matrix(1 0 0 1 540 540)" id="72439114-4160-4bc1-80e1-edce09544467"  >
</g>
<g transform="matrix(2.69 0 0 3.23 540 537.87)"  >
<path style="stroke: none; stroke-width: 1; stroke-dasharray: none; stroke-linecap: butt; stroke-dashoffset: 0; stroke-linejoin: miter; stroke-miterlimit: 4; fill: rgb(4,3,3); fill-rule: nonzero; opacity: 1;" vector-effect="non-scaling-stroke"  transform=" translate(1.54, -149.99)" d="M 0 0 C 8.252 1.714 12.807 9.989 17.466 16.315 C 19.853 19.529 22.297 22.698 24.733 25.874 C 32.442 35.933 40.009 46.091 47.481 56.327 C 48.56 57.785 49.655 59.232 50.761 60.669 C 51.311 61.386 51.862 62.102 52.43 62.84 C 52.929 63.481 53.428 64.122 53.943 64.782 C 55.031 66.422 55.031 66.422 55.031 68.422 C 61.884 61.642 68.365 54.56 74.406 47.047 C 78.787 41.617 83.479 36.532 88.234 31.434 C 90.498 29.005 92.721 26.547 94.906 24.047 C 95.442 23.435 95.979 22.822 96.531 22.191 C 97.538 21.003 98.518 19.792 99.469 18.559 C 104.68 11.946 110.705 8.577 119.031 7.422 C 123.821 7.182 128.611 7.191 133.406 7.172 C 134.695 7.151 135.984 7.131 137.312 7.109 C 145.282 7.077 151.706 7.17 158.281 12.113 C 163.163 17.333 167.647 22.779 172.031 28.422 C 172.896 29.509 173.762 30.595 174.629 31.68 C 179.427 37.701 184.105 43.79 188.594 50.047 C 189.011 50.627 189.429 51.206 189.859 51.804 C 194.832 58.81 196.409 63.763 195.031 72.422 C 191.238 83.688 183.806 93.783 177.031 103.422 C 176.567 104.088 176.103 104.754 175.625 105.44 C 172.645 109.715 169.638 113.968 166.611 118.208 C 165.547 119.7 164.485 121.192 163.424 122.686 C 156.395 132.586 149.13 142.213 141.472 151.634 C 139.568 153.997 137.704 156.389 135.841 158.784 C 130.096 166.166 124.132 173.332 118.031 180.422 C 117.513 181.027 116.994 181.632 116.46 182.255 C 88.001 215.437 88.001 215.437 82.031 218.422 C 74.82 218.88 74.82 218.88 72.094 217.297 C 70.539 214.553 70.19 212.595 70.031 209.422 C 71.334 206.701 72.61 204.457 74.281 201.984 C 74.731 201.293 75.18 200.601 75.643 199.889 C 79.737 193.668 84.159 187.69 88.594 181.711 C 92.649 176.282 92.649 176.282 96.031 170.422 C 94.779 165.281 91.14 160.951 88.156 156.672 C 87.578 155.836 87 154.999 86.405 154.138 C 80.671 145.859 74.87 137.627 69.031 129.422 C 68.555 128.752 68.078 128.081 67.587 127.391 C 66.215 125.463 64.843 123.536 63.469 121.609 C 63.063 121.04 62.657 120.472 62.24 119.885 C 60.614 117.611 58.981 115.358 57.254 113.16 C 56.031 111.422 56.031 111.422 56.031 109.422 C 50.457 113.872 46.02 118.746 41.59 124.32 C 38.692 127.902 35.557 131.251 32.406 134.609 C 31.847 135.207 31.287 135.804 30.711 136.42 C 29.634 137.569 28.557 138.719 27.48 139.868 C 25.598 141.886 23.741 143.924 21.906 145.984 C 21.409 146.543 20.911 147.101 20.398 147.676 C 18.727 149.811 17.386 152.077 16.031 154.422 C 20.829 160.467 25.757 166.292 31.031 171.922 C 35.47 176.66 39.623 181.543 43.688 186.609 C 46.363 189.82 49.175 192.872 52.031 195.922 C 55.68 199.818 59.188 203.755 62.531 207.922 C 66.869 213.324 71.531 218.368 76.254 223.43 C 78.958 226.33 81.571 229.301 84.164 232.301 C 88.372 237.081 92.716 241.74 97.031 246.422 C 100.459 245.279 100.976 244.509 103.035 241.66 C 103.891 240.487 103.891 240.487 104.765 239.29 C 105.368 238.447 105.972 237.603 106.594 236.734 C 107.219 235.872 107.843 235.009 108.487 234.12 C 109.752 232.372 111.013 230.621 112.271 228.868 C 113.788 226.76 115.318 224.664 116.859 222.574 C 124.379 212.317 130.743 201.462 137.031 190.422 C 140.956 190.422 143.038 190.534 146.02 193.199 C 150.211 197.998 152.185 200.713 152.281 207.172 C 152.307 208.198 152.333 209.224 152.359 210.281 C 151.609 217.461 146.658 222.932 142.469 228.547 C 141.844 229.39 141.219 230.233 140.575 231.102 C 136.342 236.774 131.936 242.233 127.371 247.641 C 124.807 250.689 122.259 253.74 119.781 256.859 C 119.013 257.807 118.245 258.754 117.453 259.73 C 115.702 262.333 115.702 262.333 116.656 265.102 C 119.802 270.411 123.144 272.84 129.031 274.422 C 131.396 274.631 133.771 274.752 136.145 274.801 C 137.127 274.826 137.127 274.826 138.129 274.852 C 140.201 274.905 142.272 274.946 144.344 274.984 C 146.433 275.028 148.522 275.075 150.612 275.127 C 152.494 275.174 154.376 275.211 156.259 275.248 C 159.031 275.422 159.031 275.422 160.031 276.422 C 159.757 283.689 157.685 292.802 152.378 298.06 C 147.729 300.758 141.92 299.899 136.662 299.868 C 134.499 299.859 132.34 299.888 130.178 299.92 C 119.864 299.974 109.86 299.019 102.094 291.484 C 101.282 290.699 100.47 289.914 99.633 289.105 C 92.201 281.44 85.125 273.634 78.441 265.301 C 75.587 261.891 72.578 258.658 69.531 255.422 C 64.888 250.49 60.519 245.434 56.281 240.145 C 52.869 236.015 49.221 232.113 45.582 228.184 C 41.369 223.622 37.317 218.932 33.289 214.207 C 32.266 213.008 31.242 211.808 30.219 210.609 C 29.702 210.003 29.184 209.397 28.651 208.773 C 25.446 205.031 22.179 201.361 18.844 197.734 C 14.749 193.271 10.888 188.66 7.082 183.949 C 4.46 180.718 1.756 177.566 -0.969 174.422 C -2.122 175.576 -3.275 176.73 -4.426 177.887 C -5.455 178.91 -6.494 179.923 -7.543 180.926 C -11.939 185.178 -15.75 189.769 -19.582 194.531 C -21.962 197.414 -24.436 200.173 -26.969 202.922 C -30.262 206.5 -33.415 210.137 -36.469 213.922 C -40.355 218.735 -44.444 223.314 -48.629 227.867 C -51.2 230.674 -53.704 233.532 -56.199 236.406 C -58.22 238.708 -60.282 240.97 -62.344 243.234 C -65.435 246.654 -68.393 250.141 -71.281 253.734 C -75.69 259.186 -80.404 264.299 -85.184 269.422 C -87.938 272.376 -90.605 275.399 -93.254 278.449 C -95.356 280.867 -97.469 283.274 -99.594 285.672 C -100.308 286.481 -101.022 287.291 -101.758 288.125 C -105.458 291.969 -108.974 294.697 -113.969 296.609 C -114.794 296.933 -115.619 297.256 -116.469 297.59 C -123.201 299.831 -129.908 299.676 -136.944 299.717 C -138.337 299.729 -139.731 299.749 -141.124 299.779 C -143.146 299.821 -145.169 299.835 -147.191 299.848 C -148.395 299.862 -149.6 299.877 -150.84 299.892 C -154.587 299.329 -155.679 298.373 -157.969 295.422 C -159.418 292.617 -159.418 292.617 -160.656 289.547 C -161.073 288.539 -161.489 287.531 -161.918 286.492 C -162.968 283.424 -163.697 280.654 -163.969 277.422 C -161.256 274.709 -159.758 275.156 -155.965 275.113 C -154.14 275.076 -154.14 275.076 -152.279 275.037 C -149.725 275.002 -147.17 274.971 -144.615 274.943 C -135.996 274.757 -127.997 274.501 -121.344 268.484 C -118.703 265.804 -118.703 265.804 -119.165 263.452 C -120.026 261.278 -121.022 259.722 -122.453 257.875 C -122.97 257.203 -123.486 256.531 -124.019 255.839 C -124.58 255.124 -125.141 254.409 -125.719 253.672 C -126.298 252.923 -126.877 252.173 -127.474 251.401 C -130.935 246.946 -134.479 242.567 -138.076 238.22 C -156.45 216.004 -156.45 216.004 -156.316 205.68 C -155.474 200.206 -152.272 195.792 -148.531 191.859 C -145.449 190.13 -143.448 190.312 -139.969 190.422 C -139.398 191.512 -138.827 192.603 -138.238 193.727 C -129.563 209.985 -118.76 224.319 -107.374 238.762 C -106.812 239.475 -106.251 240.187 -105.672 240.922 C -105.173 241.551 -104.675 242.18 -104.161 242.828 C -102.969 244.422 -102.969 244.422 -101.969 246.422 C -98.292 244.911 -96.25 242.773 -93.656 239.797 C -92.866 238.897 -92.076 237.997 -91.262 237.07 C -90.505 236.196 -89.748 235.322 -88.969 234.422 C -87.802 233.088 -86.636 231.755 -85.469 230.422 C -84.909 229.779 -84.35 229.135 -83.773 228.473 C -81.739 226.161 -79.667 223.887 -77.594 221.609 C -74.502 218.19 -71.544 214.702 -68.656 211.109 C -64.766 206.295 -60.639 201.773 -56.411 197.259 C -53.294 193.911 -50.333 190.492 -47.469 186.922 C -43.139 181.53 -38.486 176.495 -33.773 171.441 C -30.91 168.37 -28.108 165.251 -25.375 162.062 C -24.1 160.575 -22.786 159.121 -21.469 157.672 C -19.736 155.6 -19.736 155.6 -20.199 153.492 C -21.073 151.142 -22.076 149.88 -23.781 148.047 C -27.191 144.295 -30.498 140.472 -33.781 136.609 C -38.326 131.285 -42.968 126.07 -47.699 120.91 C -50.844 117.462 -53.915 113.951 -56.969 110.422 C -60.797 111.698 -61.271 113.043 -63.406 116.422 C -66.711 121.53 -70.126 126.529 -73.656 131.484 C -78.11 137.758 -82.501 144.071 -86.844 150.422 C -87.367 151.186 -87.89 151.951 -88.428 152.739 C -89.438 154.219 -90.443 155.703 -91.44 157.191 C -92.511 158.754 -93.62 160.292 -94.755 161.809 C -95.323 162.588 -95.891 163.368 -96.477 164.172 C -97.001 164.868 -97.526 165.564 -98.067 166.281 C -99.252 168.468 -99.252 168.468 -98.215 171.037 C -96.853 173.643 -95.369 176.048 -93.719 178.484 C -92.671 180.033 -92.671 180.033 -91.602 181.613 C -89.552 184.592 -87.477 187.553 -85.398 190.512 C -84.772 191.403 -84.146 192.294 -83.501 193.213 C -82.243 195 -80.982 196.784 -79.718 198.567 C -79.133 199.395 -78.548 200.224 -77.945 201.078 C -77.42 201.819 -76.895 202.559 -76.354 203.322 C -74.231 206.541 -72.95 208.507 -73.031 212.422 C -74.23 216.258 -75.471 217.479 -78.969 219.422 C -84.165 219.776 -87.51 216.984 -91.348 213.832 C -99.565 206.276 -106.833 197.763 -113.797 189.059 C -116.075 186.292 -118.467 183.672 -120.906 181.047 C -124.955 176.648 -128.628 172.088 -132.223 167.322 C -134.994 163.657 -137.87 160.115 -140.844 156.609 C -146.283 150.136 -151.333 143.402 -156.355 136.602 C -158.001 134.378 -159.658 132.163 -161.316 129.949 C -198.971 79.503 -198.971 79.503 -198.488 63.805 C -196.735 52.387 -186.653 42.793 -179.476 34.229 C -177.501 31.862 -175.575 29.459 -173.656 27.047 C -173.043 26.284 -172.429 25.521 -171.797 24.734 C -170.493 23.085 -169.214 21.416 -167.953 19.734 C -163.171 13.456 -159.002 8.969 -150.969 7.422 C -146.799 7.179 -142.63 7.151 -138.454 7.127 C -137.101 7.115 -135.749 7.095 -134.396 7.065 C -124.353 6.845 -115.831 7.691 -107.219 13.172 C -104.655 15.736 -102.268 18.403 -99.914 21.16 C -97.85 23.56 -95.727 25.897 -93.594 28.234 C -90.502 31.654 -87.544 35.141 -84.656 38.734 C -80.753 43.566 -76.61 48.104 -72.363 52.629 C -68.499 56.773 -64.935 61.09 -61.492 65.594 C -60.085 67.531 -60.085 67.531 -57.969 68.422 C -57.768 67.776 -57.567 67.13 -57.359 66.465 C -55.376 62.124 -52.577 58.54 -49.719 54.734 C -48.79 53.486 -48.79 53.486 -47.843 52.213 C -42.383 44.903 -36.785 37.703 -31.16 30.52 C -28.424 27.02 -25.746 23.485 -23.094 19.922 C -20.334 16.229 -17.558 12.553 -14.719 8.922 C -14.115 8.148 -13.512 7.375 -12.891 6.578 C -9.031 2.248 -6.081 -0.408 0 0 Z" stroke-linecap="round" />
</g>
<g transform="matrix(2.69 0 0 3.23 879.18 327.01)"  >
<path style="stroke: none; stroke-width: 1; stroke-dasharray: none; stroke-linecap: butt; stroke-dashoffset: 0; stroke-linejoin: miter; stroke-miterlimit: 4; fill: rgb(255,255,255); fill-rule: nonzero; opacity: 1;" vector-effect="non-scaling-stroke"  transform=" translate(24.03, -58.99)" d="M 0 0 C 3.958 2.244 5.676 5.164 8 9 C 9.222 10.582 10.445 12.163 11.692 13.725 C 12.996 15.37 14.262 17.038 15.52 18.719 C 17.126 20.861 18.765 22.946 20.449 25.031 C 21.188 25.97 21.926 26.908 22.688 27.875 C 23.351 28.697 24.015 29.52 24.699 30.367 C 26.526 34.064 26.058 36.046 25 40 C 23.668 42.587 22.34 44.899 20.75 47.312 C 20.31 47.998 19.871 48.683 19.418 49.389 C 14.931 56.288 10.084 62.925 5.223 69.562 C 2.233 73.654 -0.65 77.81 -3.5 82 C -9.493 90.793 -15.738 99.398 -22 108 C -22.867 109.194 -23.735 110.388 -24.602 111.582 C -26.399 114.056 -28.198 116.529 -30 119 C -34.535 117.492 -36.458 113.806 -38.938 110 C -39.916 108.538 -40.897 107.077 -41.879 105.617 C -42.39 104.856 -42.9 104.095 -43.426 103.312 C -46.002 99.529 -48.685 95.827 -51.375 92.125 C -51.911 91.385 -52.447 90.645 -52.999 89.882 C -55.859 85.937 -58.731 82.001 -61.609 78.07 C -62.198 77.263 -62.787 76.456 -63.393 75.625 C -64.516 74.084 -65.644 72.547 -66.775 71.012 C -69.592 67.145 -72.005 63.376 -74 59 C -73.455 58.406 -72.909 57.811 -72.348 57.199 C -68.315 52.767 -64.383 48.294 -60.625 43.625 C -56.943 39.071 -53.071 34.763 -49.084 30.479 C -46.113 27.267 -43.301 23.974 -40.562 20.562 C -37.064 16.231 -33.437 12.051 -29.688 7.938 C -29.184 7.377 -28.68 6.816 -28.16 6.239 C -20.723 -1.835 -10.43 -1.874 0 0 Z" stroke-linecap="round" />
</g>
<g transform="matrix(2.69 0 0 3.23 221.89 346.27)"  >
<path style="stroke: none; stroke-width: 1; stroke-dasharray: none; stroke-linecap: butt; stroke-dashoffset: 0; stroke-linejoin: miter; stroke-miterlimit: 4; fill: rgb(255,255,255); fill-rule: nonzero; opacity: 1;" vector-effect="non-scaling-stroke"  transform=" translate(-14.22, -59.69)" d="M 0 0 C 0.89 -0.02 1.78 -0.04 2.697 -0.061 C 9.768 -0.055 13.419 1.683 18.496 6.734 C 19.199 7.544 19.901 8.353 20.625 9.188 C 21.789 10.518 21.789 10.518 22.977 11.875 C 23.706 12.721 24.436 13.566 25.188 14.438 C 26.291 15.688 27.396 16.938 28.5 18.188 C 30.662 20.665 32.804 23.158 34.938 25.66 C 39.678 31.219 44.428 36.747 49.375 42.125 C 61.815 55.692 61.815 55.692 64.188 60.438 C 57.489 70.391 50.699 80.233 43.438 89.786 C 40.336 93.876 37.339 98.016 34.438 102.25 C 31.566 106.434 28.689 110.613 25.75 114.75 C 25.112 115.654 24.474 116.557 23.816 117.488 C 23.279 118.132 22.741 118.775 22.188 119.438 C 21.528 119.438 20.868 119.438 20.188 119.438 C 18.973 118.071 18.973 118.071 17.605 116.133 C 17.093 115.414 16.58 114.695 16.052 113.954 C 15.498 113.165 14.945 112.376 14.375 111.562 C 13.188 109.892 12 108.221 10.812 106.551 C 10.207 105.694 9.601 104.838 8.977 103.956 C 6.82 100.921 4.632 97.911 2.44 94.902 C -3.797 86.329 -9.876 77.652 -15.91 68.935 C -19.054 64.394 -22.21 59.863 -25.426 55.371 C -25.979 54.596 -26.533 53.822 -27.103 53.024 C -28.126 51.597 -29.152 50.172 -30.184 48.752 C -33.427 44.22 -35.861 40.807 -35.742 35.035 C -34.65 30.809 -32.712 28.125 -29.938 24.875 C -28.94 23.659 -27.942 22.443 -26.945 21.227 C -26.43 20.607 -25.915 19.987 -25.384 19.349 C -22.795 16.2 -20.311 12.971 -17.812 9.75 C -11.817 2.023 -9.85 -0.077 0 0 Z" stroke-linecap="round" />
</g>
<g transform="matrix(2.69 0 0 3.23 534.72 339.01)"  >
<path style="stroke: none; stroke-width: 1; stroke-dasharray: none; stroke-linecap: butt; stroke-dashoffset: 0; stroke-linejoin: miter; stroke-miterlimit: 4; fill: rgb(255,255,255); fill-rule: nonzero; opacity: 1;" vector-effect="non-scaling-stroke"  transform=" translate(-1.46, -53)" d="M 0 0 C 4.229 1.41 5.861 4.514 8.375 8 C 9.46 9.476 10.546 10.951 11.633 12.426 C 12.471 13.568 12.471 13.568 13.325 14.733 C 15.924 18.251 18.587 21.718 21.25 25.188 C 21.771 25.872 22.293 26.557 22.83 27.263 C 25.983 31.399 29.18 35.494 32.414 39.566 C 33.155 40.51 33.896 41.454 34.659 42.427 C 36.114 44.28 37.58 46.124 39.06 47.958 C 39.718 48.802 40.376 49.646 41.055 50.516 C 41.647 51.261 42.24 52.006 42.851 52.774 C 44 55 44 55 43.848 57.583 C 42.979 60.061 42.198 61.309 40.375 63.164 C 39.57 64.002 39.57 64.002 38.748 64.858 C 38.171 65.441 37.594 66.024 37 66.625 C 35.801 67.874 34.604 69.125 33.41 70.379 C 32.824 70.994 32.237 71.609 31.633 72.243 C 29.45 74.592 27.437 77.055 25.438 79.562 C 21.138 84.931 16.51 89.936 11.82 94.961 C 8.459 98.565 5.217 102.267 2 106 C -2.755 102.138 -6.855 98.096 -10.75 93.375 C -14.63 88.754 -18.574 84.227 -22.688 79.812 C -27.006 75.151 -31.07 70.346 -35.027 65.375 C -36.936 62.944 -36.936 62.944 -39.316 61 C -39.872 60.34 -40.428 59.68 -41 59 C -40.647 55.191 -39.469 52.836 -37.191 49.812 C -36.614 49.038 -36.037 48.264 -35.443 47.466 C -34.822 46.652 -34.202 45.838 -33.562 45 C -32.927 44.152 -32.291 43.304 -31.635 42.43 C -29.767 39.946 -27.887 37.471 -26 35 C -25.284 34.061 -25.284 34.061 -24.553 33.104 C -22.549 30.484 -20.535 27.873 -18.516 25.266 C -15.52 21.389 -12.57 17.478 -9.625 13.562 C -9.125 12.9 -8.624 12.237 -8.109 11.554 C -5.275 7.779 -2.579 3.954 0 0 Z" stroke-linecap="round" />
</g>
<g transform="matrix(2.69 0 0 3.23 236.47 593.82)"  >
<path style="stroke: none; stroke-width: 1; stroke-dasharray: none; stroke-linecap: butt; stroke-dashoffset: 0; stroke-linejoin: miter; stroke-miterlimit: 4; fill: rgb(4,3,3); fill-rule: nonzero; opacity: 1;" vector-effect="non-scaling-stroke"  transform=" translate(31.55, -43.9)" d="M 0 0 C 3.463 2.734 4.849 4.743 5.375 9.125 C 4.608 17.05 -1.59 23.206 -6.562 29.125 C -7.173 29.859 -7.784 30.594 -8.413 31.35 C -12.829 36.646 -17.305 41.888 -21.809 47.11 C -25.522 51.42 -29.133 55.805 -32.723 60.219 C -52.43 84.287 -52.43 84.287 -58 88 C -61.161 87.802 -63.263 87.559 -65.812 85.625 C -68.291 82.233 -68.529 78.513 -68.457 74.445 C -67.559 69.639 -64.182 66.542 -61 63 C -59.709 61.467 -58.418 59.934 -57.132 58.397 C -55.25 56.153 -53.349 53.926 -51.448 51.698 C -49.086 48.928 -46.729 46.153 -44.375 43.375 C -43.686 42.562 -43.686 42.562 -42.983 41.733 C -40.14 38.371 -37.339 34.979 -34.562 31.562 C -30.592 26.681 -26.505 21.909 -22.391 17.148 C -18.671 12.827 -15.1 8.409 -11.621 3.891 C -8.087 -0.232 -5.226 -0.55 0 0 Z" stroke-linecap="round" />
</g>
<g transform="matrix(2.69 0 0 3.23 856.85 614.49)"  >
<path style="stroke: none; stroke-width: 1; stroke-dasharray: none; stroke-linecap: butt; stroke-dashoffset: 0; stroke-linejoin: miter; stroke-miterlimit: 4; fill: rgb(4,3,3); fill-rule: nonzero; opacity: 1;" vector-effect="non-scaling-stroke"  transform=" translate(-29.04, -43.98)" d="M 0 0 C 8.009 1.493 12.321 8.485 17.168 14.562 C 19.923 18.011 22.802 21.348 25.688 24.688 C 29.224 28.789 32.716 32.916 36.125 37.125 C 39.676 41.504 43.349 45.759 47.062 50 C 51.488 55.065 55.783 60.209 59.938 65.5 C 60.403 66.093 60.869 66.685 61.349 67.296 C 65.091 72.108 66.205 74.477 65.688 80.688 C 64.19 83.296 62.817 85.558 60.688 87.688 C 57.438 88.062 57.438 88.062 53.688 87.688 C 51.25 85.484 51.25 85.484 48.688 82.688 C 47.52 81.446 47.52 81.446 46.328 80.18 C 41.43 74.817 36.729 69.354 32.168 63.703 C 29.238 60.141 26.22 56.663 23.188 53.188 C 18.678 48.015 14.261 42.785 9.949 37.445 C 8.267 35.394 6.566 33.374 4.832 31.367 C 4.341 30.797 3.85 30.227 3.344 29.639 C 2.398 28.543 1.448 27.452 0.492 26.365 C -4.361 20.732 -8.099 15.476 -7.691 7.777 C -6.805 2.887 -4.758 0.988 0 0 Z" stroke-linecap="round" />
</g>
</svg>