<svg xmlns="http://www.w3.org/2000/svg" xmlns:xlink="http://www.w3.org/1999/xlink" version="1.1" width="1080" height="1080" viewBox="0 0 1080 1080" xml:space="preserve" transform="matrix(-1,0,0,1,0,0)">
<desc>Created with Fabric.js 5.2.4</desc>
<defs>
</defs>
<rect x="0" y="0" width="100%" height="100%" fill="transparent"></rect>
<g transform="matrix(1 0 0 1 540 540)" id="80eb257b-8511-4c36-877a-02a716841816">
<rect style="stroke: none; stroke-width: 1; stroke-dasharray: none; stroke-linecap: butt; stroke-dashoffset: 0; stroke-linejoin: miter; stroke-miterlimit: 4; fill: rgb(255,255,255); fill-rule: nonzero; opacity: 1; visibility: hidden;" vector-effect="non-scaling-stroke" x="-540" y="-540" rx="0" ry="0" width="1080" height="1080"></rect>
</g>
<g transform="matrix(1 0 0 1 540 540)" id="4e8b2af5-e3fb-4bb5-a8bb-17ba215a7179">
</g>
<g transform="matrix(-0.39 0 0 -0.39 513 514.37)" id="e192f88a-5a66-4acb-8bfc-3a768199b7c0">
<path style="stroke: rgb(0,0,0); stroke-width: 0; stroke-dasharray: none; stroke-linecap: butt; stroke-dashoffset: 0; stroke-linejoin: miter; stroke-miterlimit: 4; fill: rgb(0,0,0); fill-rule: nonzero; opacity: 1;" vector-effect="non-scaling-stroke" transform=" translate(-840.49, -1429.62)" d="M 804 2630 C 786 2624 759 2605 742 2586 C 710 2549 706 2531 694 2307 C 691 2243 683 2187 678 2184 C 668 2178 510 2293 414 2377 C 365 2419 342 2432 298 2441 C 236 2454 178 2442 136 2409 C 112 2390 110 2382 110 2320 C 110 2252 111 2250 159 2193 C 221 2119 270 2073 345 2020 C 378 1996 434 1949 470 1914 C 506 1880 550 1838 569 1823 C 594 1802 601 1789 596 1774 C 593 1764 535 1719 468 1675 C 270 1545 164 1463 150 1430 C 134 1392 144 1355 180 1319 C 237 1262 313 1287 490 1421 C 607 1510 654 1537 664 1522 C 666 1518 663 1262 658 953 C 652 644 651 375 655 354 C 664 306 711 259 773 235 C 818 218 824 218 854 233 C 884 247 889 255 900 312 C 907 351 915 527 919 770 C 922 987 929 1171 934 1179 C 939 1187 946 1256 949 1331 C 953 1413 960 1474 967 1481 C 975 1489 993 1482 1037 1452 C 1069 1431 1105 1410 1117 1406 C 1128 1402 1172 1375 1214 1345 C 1324 1266 1366 1246 1429 1246 C 1479 1246 1484 1248 1526 1292 C 1582 1352 1585 1393 1539 1460 C 1503 1513 1478 1532 1265 1681 C 1177 1742 1097 1800 1086 1810 C 1069 1827 1069 1829 1085 1854 C 1103 1881 1229 1979 1360 2067 C 1470 2141 1540 2225 1540 2282 C 1540 2331 1491 2379 1442 2380 C 1399 2380 1398 2379 1177 2232 C 1045 2144 986 2110 979 2117 C 971 2125 971 2178 979 2300 C 991 2496 984 2554 941 2602 C 912 2635 857 2646 804 2630 z" stroke-linecap="round"></path>
</g>
</svg>