<?xml version="1.0" standalone="no"?>
<!DOCTYPE svg PUBLIC "-//W3C//DTD SVG 20010904//EN"
 "http://www.w3.org/TR/2001/REC-SVG-20010904/DTD/svg10.dtd">
<svg version="1.0" xmlns="http://www.w3.org/2000/svg"
 width="167.000000pt" height="300.000000pt" viewBox="0 0 167.000000 300.000000"
 preserveAspectRatio="xMidYMid meet">
<metadata>
Created by potrace 1.10, written by Peter Selinger 2001-2011
</metadata>
<g transform="translate(0.000000,300.000000) scale(0.100000,-0.100000)"
fill="#000000" stroke="none">
<path d="M804 2630 c-18 -6 -45 -25 -62 -44 -32 -37 -36 -55 -48 -279 -3 -64
-11 -120 -16 -123 -10 -6 -168 109 -264 193 -49 42 -72 55 -116 64 -62 13
-120 1 -162 -32 -24 -19 -26 -27 -26 -89 0 -68 1 -70 49 -127 62 -74 111 -120
186 -173 33 -24 89 -71 125 -106 36 -34 80 -76 99 -91 25 -21 32 -34 27 -49
-3 -10 -61 -55 -128 -99 -198 -130 -304 -212 -318 -245 -16 -38 -6 -75 30
-111 57 -57 133 -32 310 102 117 89 164 116 174 101 2 -4 -1 -260 -6 -569 -6
-309 -7 -578 -3 -599 9 -48 56 -95 118 -119 45 -17 51 -17 81 -2 30 14 35 22
46 79 7 39 15 215 19 458 3 217 10 401 15 409 5 8 12 77 15 152 4 82 11 143
18 150 8 8 26 1 70 -29 32 -21 68 -42 80 -46 11 -4 55 -31 97 -61 110 -79 152
-99 215 -99 50 0 55 2 97 46 56 60 59 101 13 168 -36 53 -61 72 -274 221 -88
61 -168 119 -179 129 -17 17 -17 19 -1 44 18 27 144 125 275 213 110 74 180
158 180 215 0 49 -49 97 -98 98 -43 0 -44 -1 -265 -148 -132 -88 -191 -122
-198 -115 -8 8 -8 61 0 183 12 196 5 254 -38 302 -29 33 -84 44 -137 28z"/>
</g>
</svg>
