<?xml version="1.0" encoding="UTF-8"?>
<svg width="300" height="300" viewBox="0 0 300 300" xmlns="http://www.w3.org/2000/svg">
  <g transform="translate(0,300) scale(0.1,-0.1)" fill="currentColor">
    <path d="M692 1818 c-7 -7 -12 -34 -12 -60 0 -26 -4 -48 -9 -48 -5 0 -28 16
    -51 35 -23 19 -48 35 -55 35 -29 0 -45 -13 -45 -37 0 -25 24 -52 93 -108 20
    -16 37 -33 37 -37 0 -4 -27 -26 -60 -49 -46 -32 -60 -48 -58 -63 5 -32 30 -30
    86 9 l52 35 0 -170 0 -170 25 -12 c14 -6 28 -8 32 -4 4 4 11 79 15 168 4 88 9
    163 12 166 3 3 29 -9 57 -27 55 -34 85 -37 103 -9 13 21 -12 50 -85 99 -27 19
    -49 37 -49 40 0 4 25 24 56 45 60 42 77 64 68 88 -9 24 -30 20 -87 -19 -28
    -19 -55 -35 -58 -35 -3 0 -4 22 -1 49 7 73 -29 116 -66 79z"/>
    <path d="M1070 1650 c-31 -31 -40 -64 -40 -140 0 -115 29 -160 105 -160 32 0
    47 5 52 15 8 23 -2 28 -25 14 -46 -29 -88 12 -94 91 l-3 35 68 3 c65 3 67 4
    67 30 0 104 -74 168 -130 112z m80 -31 c6 -10 10 -34 10 -53 l0 -36 -51 0
    c-48 0 -51 1 -45 23 3 12 6 30 6 40 0 24 36 58 55 51 9 -4 20 -15 25 -25z"/>
    <path d="M1317 1663 c-4 -3 -23 -6 -42 -5 l-35 1 0 -154 c0 -146 1 -155 19
    -155 18 0 19 7 14 120 -5 102 -3 123 11 145 12 17 24 25 39 23 29 -4 38 -48
    35 -178 -3 -93 -1 -105 15 -108 15 -3 17 8 17 130 0 138 5 158 42 158 30 0 38
    -35 38 -164 0 -105 2 -126 15 -126 13 0 15 22 15 140 0 127 -2 142 -20 160
    -24 24 -32 25 -71 5 -27 -14 -31 -14 -45 0 -16 16 -36 20 -47 8z"/>
    <path d="M2013 1660 c-37 -15 -57 -67 -57 -150 -1 -86 22 -139 67 -154 71 -25
    119 34 120 147 1 126 -51 189 -130 157z m72 -40 c23 -25 32 -143 15 -194 -12
    -38 -42 -61 -66 -52 -40 15 -59 161 -30 231 17 41 52 47 81 15z"/>
    <path d="M2251 1649 c-27 -16 -32 -17 -28 -5 5 11 0 16 -13 16 -19 0 -20 -7
    -20 -156 0 -138 2 -155 16 -152 14 3 16 19 15 122 -2 110 -1 120 20 142 27 29
    55 31 69 5 5 -11 10 -76 10 -145 0 -105 2 -126 15 -126 13 0 15 22 15 140 0
    127 -2 142 -20 160 -25 25 -37 25 -79 -1z"/>
    <path d="M1557 1508 c1 -131 4 -153 17 -156 13 -3 16 7 16 56 l0 59 39 7 c21
    3 44 12 50 20 35 42 30 135 -9 156 -10 5 -40 10 -67 10 l-48 0 2 -152z m103
    113 c28 -53 -2 -131 -50 -131 -18 0 -20 7 -20 75 l0 75 30 0 c19 0 33 -7 40
    -19z"/>
    <path d="M1747 1508 c2 -129 5 -154 18 -156 12 -3 15 10 15 77 l0 81 51 0 50
    0 -7 -80 c-6 -77 -6 -80 15 -80 21 0 21 4 21 155 0 151 -1 155 -21 155 -19 0
    -21 -5 -18 -62 l4 -63 -47 -3 -48 -3 0 65 c0 56 -3 66 -17 66 -16 0 -18 -13
    -16 -152z"/>
    <path d="M2408 1505 c2 -127 6 -155 17 -155 13 0 15 26 15 155 0 141 -2 155
    -17 155 -17 0 -18 -13 -15 -155z"/>
  </g>
</svg> 