<svg width="48" height="48" viewBox="0 0 48 48" fill="none" xmlns="http://www.w3.org/2000/svg">
<path d="M0 12C0 5.37258 5.37258 0 12 0H36C42.6274 0 48 5.37258 48 12V36C48 42.6274 42.6274 48 36 48H12C5.37258 48 0 42.6274 0 36V12Z" fill="#FFC716"/>
<path d="M23.8438 19.7953C20.1486 19.7953 16.5546 21.4658 13.6187 24.0473C13.315 24.351 13.0113 24.5029 12.7076 24.5029C12.4545 24.5029 12.2014 24.351 11.9989 24.0979L8.30371 19.7447C8.10124 19.4916 8 19.2385 8 19.036C8 18.7323 8.15186 18.4792 8.45557 18.1755C12.91 14.2272 18.3263 12 23.8438 12C29.3612 12 34.7775 14.2272 39.2319 18.1755C39.5356 18.4792 39.6875 18.7323 39.6875 19.036C39.6875 19.2385 39.5863 19.4916 39.3838 19.7447L35.6886 24.0979C35.4861 24.351 35.233 24.5029 34.9799 24.5029C34.6762 24.5029 34.3725 24.351 34.0688 24.0473C31.1329 21.4658 27.5389 19.7953 23.8438 19.7953ZM23.8438 36.0947C19.7436 36.0947 16.4028 32.7538 16.4028 28.7043C16.4028 24.6548 19.7436 21.3139 23.8438 21.3139C27.9439 21.3139 31.2847 24.6041 31.2847 28.7043C31.2847 32.8044 27.9439 36.0947 23.8438 36.0947Z" fill="#101214"/>
</svg>
